<svg id="Ebene_1" data-name="Ebene 1" xmlns="http://www.w3.org/2000/svg" viewBox="0 0 618.09 128.95"><defs><style>.cls-1,.cls-3{fill:#003460;}.cls-2{fill:#009bb7;}.cls-2,.cls-3{fill-rule:evenodd;}</style></defs><path class="cls-1" d="M97,40.38a1.22,1.22,0,0,1,1.26-1.68h6.45a1.44,1.44,0,0,1,1.26,1l7.28,27.94h.28l11.13-28.85a1.13,1.13,0,0,1,1.19-.77h1.26a1.13,1.13,0,0,1,1.19.77l11.2,28.85h.28l7.14-27.94a1.44,1.44,0,0,1,1.26-1h6.44a1.22,1.22,0,0,1,1.26,1.68L142.62,87.43a1.34,1.34,0,0,1-1.26,1h-1.12a1.19,1.19,0,0,1-1.19-.77L126.52,55.92h-.35L113.78,87.64a1.19,1.19,0,0,1-1.19.77h-1.12a1.34,1.34,0,0,1-1.26-1Z" transform="translate(-1.09 -0.11)"/><path class="cls-1" d="M163.33,40a1.38,1.38,0,0,1,1.34-1.33h6.51A1.38,1.38,0,0,1,172.51,40V86.38a1.38,1.38,0,0,1-1.33,1.33h-6.51a1.38,1.38,0,0,1-1.34-1.33Z" transform="translate(-1.09 -0.11)"/><path class="cls-1" d="M182.37,83c-.7-.56-1-1-.35-2.1l2.52-4.34a1.62,1.62,0,0,1,2.38-.49c2.87,2.17,6,4.34,10.58,4.34,3.64,0,6.37-2.38,6.37-5.39,0-3.57-3-6-8.89-8.4-6.59-2.67-13.17-6.87-13.17-15.13,0-6.23,4.62-13.44,15.76-13.44a24.64,24.64,0,0,1,14,4.69A1.73,1.73,0,0,1,212,45l-2.66,4a1.84,1.84,0,0,1-2.45.84c-3-1.89-5.88-3.85-9.73-3.85S191,48.22,191,50.88c0,3.29,2.6,5.53,8.27,7.84,6.79,2.73,14.63,6.8,14.63,15.83,0,7.21-6.23,13.86-16.1,13.86C189,88.41,184.4,84.7,182.37,83Z" transform="translate(-1.09 -0.11)"/><path class="cls-1" d="M220.52,83c-.7-.56-1-1-.35-2.1l2.52-4.34a1.62,1.62,0,0,1,2.38-.49c2.87,2.17,6,4.34,10.58,4.34C239.29,80.36,242,78,242,75c0-3.57-3-6-8.9-8.4C226.54,63.9,220,59.7,220,51.44,220,45.21,224.58,38,235.72,38a24.64,24.64,0,0,1,14,4.69,1.73,1.73,0,0,1,.42,2.31l-2.66,4a1.84,1.84,0,0,1-2.45.84c-3-1.89-5.88-3.85-9.73-3.85s-6.17,2.24-6.17,4.9c0,3.29,2.6,5.53,8.27,7.84,6.79,2.73,14.63,6.8,14.63,15.83,0,7.21-6.23,13.86-16.1,13.86C227.1,88.41,222.55,84.7,220.52,83Z" transform="translate(-1.09 -0.11)"/><path class="cls-1" d="M260.7,40A1.33,1.33,0,0,1,262,38.7h28.5A1.33,1.33,0,0,1,291.86,40v5.74a1.33,1.33,0,0,1-1.33,1.33H269.81V58.58H287.1a1.38,1.38,0,0,1,1.33,1.33v5.82a1.33,1.33,0,0,1-1.33,1.33H269.81V79.31h20.72a1.33,1.33,0,0,1,1.33,1.33v5.74a1.33,1.33,0,0,1-1.33,1.33H262a1.33,1.33,0,0,1-1.33-1.33Z" transform="translate(-1.09 -0.11)"/><path class="cls-1" d="M301,39.26A1.32,1.32,0,0,1,302.35,38h1a1.54,1.54,0,0,1,1.19.49L333.16,69h.14V40a1.33,1.33,0,0,1,1.33-1.33h6.44A1.38,1.38,0,0,1,342.4,40V87.15a1.32,1.32,0,0,1-1.33,1.26h-1a1.54,1.54,0,0,1-1.19-.49L310.19,56.27h-.14V86.38a1.33,1.33,0,0,1-1.33,1.33h-6.37A1.38,1.38,0,0,1,301,86.38Z" transform="translate(-1.09 -0.11)"/><path class="cls-1" d="M352.26,83c-.7-.56-1-1-.35-2.1l2.52-4.34a1.62,1.62,0,0,1,2.38-.49c2.87,2.17,6,4.34,10.57,4.34,3.64,0,6.37-2.38,6.37-5.39,0-3.57-3-6-8.89-8.4-6.58-2.67-13.16-6.87-13.16-15.13,0-6.23,4.62-13.44,15.75-13.44a24.72,24.72,0,0,1,14,4.69,1.73,1.73,0,0,1,.42,2.31l-2.67,4a1.84,1.84,0,0,1-2.45.84c-3-1.89-5.88-3.85-9.73-3.85s-6.16,2.24-6.16,4.9c0,3.29,2.59,5.53,8.26,7.84,6.79,2.73,14.64,6.8,14.64,15.83,0,7.21-6.23,13.86-16.11,13.86C358.84,88.41,354.29,84.7,352.26,83Z" transform="translate(-1.09 -0.11)"/><path class="cls-1" d="M410.59,41.71H397.22c-.7,0-.91-.42-.91-1.05v-1a.88.88,0,0,1,.91-.91h30.1a.88.88,0,0,1,.91.91V40.8a.88.88,0,0,1-.91.91H413.88V86.8c0,.49-.42.91-1.12.91H411.5a.93.93,0,0,1-.91-.91Z" transform="translate(-1.09 -0.11)"/><path class="cls-1" d="M435.7,39.61a.93.93,0,0,1,.91-.91h1.47a.93.93,0,0,1,.91.91V69.79c0,9,5.67,15.4,15,15.4s15.13-6.3,15.13-15.33V39.61c0-.56.28-.91,1-.91h1.4a.93.93,0,0,1,.91.91V70.14c0,10.71-7.28,18.27-18.42,18.27S435.7,80.85,435.7,70.14Z" transform="translate(-1.09 -0.11)"/><path class="cls-1" d="M483,39.61a.88.88,0,0,1,.91-.91H501.3c8.54,0,15.62,6.23,15.62,14.77a15.59,15.59,0,0,1-11.56,14.85l10.22,18.13c.36.56.21,1.26-.49,1.26h-1.82a1.36,1.36,0,0,1-1.47-.84l-10-18.13c-.91.07-1.68.07-2.59.07H486.32v18c0,.49-.42.91-1.12.91h-1.26a.93.93,0,0,1-.91-.91Zm18.13,26a12.18,12.18,0,0,0,12.39-12.12c0-6.65-5.67-11.55-12.46-11.55h-14.7V65.59Z" transform="translate(-1.09 -0.11)"/><path class="cls-1" d="M551.07,62.78c4.83,1.41,8.89,5,8.89,11.63,0,7.84-6.3,13.3-15.4,13.3H529a.93.93,0,0,1-.91-.91V39.61a.93.93,0,0,1,.91-.91h14.91c8.61,0,14.49,5,14.49,12.67a11.9,11.9,0,0,1-7.35,11.28Zm-6.65-1.4c6.58,0,10.43-4.13,10.43-9.87,0-6.09-4.2-9.73-10.92-9.73h-12.6v19.6Zm.42,23.39c6.79,0,11.55-4.06,11.55-10.43s-4.83-9.94-11.48-9.94H531.33V84.77Z" transform="translate(-1.09 -0.11)"/><path class="cls-1" d="M593.91,38a25.21,25.21,0,1,1-25.2,25.27A25.17,25.17,0,0,1,593.91,38Zm0,47.33a22.13,22.13,0,1,0-22.12-22.06A22.08,22.08,0,0,0,593.91,85.33Z" transform="translate(-1.09 -0.11)"/><path class="cls-1" d="M111.55,128.52a.55.55,0,0,1-.53.53h-.7a.54.54,0,0,1-.54-.53V112.59a.56.56,0,0,1,.54-.53h.41c.26,0,.34.07.46.36l.17.54a5.66,5.66,0,0,1,3.37-1.14c3.06,0,5.22,2.64,5.22,5.85s-2.21,5.87-5.29,5.87a5.61,5.61,0,0,1-3.11-.92Zm2.84-6.6c2.16,0,3.74-1.82,3.74-4.28,0-2.18-1.36-4.2-3.62-4.2a4.25,4.25,0,0,0-3,1.36V121A5.31,5.31,0,0,0,114.39,121.92Z" transform="translate(-1.09 -0.11)"/><path class="cls-1" d="M123,112.59a.55.55,0,0,1,.53-.53H124a.49.49,0,0,1,.49.39l.19.8a4.48,4.48,0,0,1,3.45-1.43c.85,0,2.23.12,2,.9l-.31.87a.43.43,0,0,1-.66.27,2.8,2.8,0,0,0-1.21-.32,3.56,3.56,0,0,0-3,1.43v7.77a.56.56,0,0,1-.53.54h-.73a.54.54,0,0,1-.53-.54Z" transform="translate(-1.09 -0.11)"/><path class="cls-1" d="M135.9,116.16a9.58,9.58,0,0,1,2.41.37c0-2.07-.24-3.09-1.85-3.09a10,10,0,0,0-3.32.66c-.29.12-.44,0-.54-.29l-.24-.66c-.1-.34.07-.48.34-.6a10.17,10.17,0,0,1,3.86-.73c2.87,0,3.47,1.41,3.47,4.71v6.21a.54.54,0,0,1-.53.54H139c-.29,0-.39-.17-.46-.42l-.22-.75a4.92,4.92,0,0,1-3.47,1.43,3.4,3.4,0,0,1-3.48-3.66C131.41,117.74,133,116.16,135.9,116.16Zm-3.25-8.23a1.25,1.25,0,1,1,1.24,1.24A1.25,1.25,0,0,1,132.65,107.93Zm2.55,14a3.89,3.89,0,0,0,3.08-1.51v-2.28a5.78,5.78,0,0,0-2.38-.44c-1.55,0-2.71.75-2.71,2.19A1.94,1.94,0,0,0,135.2,121.92Zm2.14-14a1.25,1.25,0,1,1,1.24,1.24A1.25,1.25,0,0,1,137.34,107.93Z" transform="translate(-1.09 -0.11)"/><path class="cls-1" d="M143.14,122.18a.39.39,0,0,1-.07-.48l.34-.63c.14-.27.34-.37.65-.15a4.59,4.59,0,0,0,2.79,1c1.15,0,1.92-.54,1.92-1.41,0-1.07-.87-1.51-2.5-2.31s-3.18-1.53-3.18-3.45c0-1.16.88-2.93,3.47-2.93a5.91,5.91,0,0,1,3.21.87.53.53,0,0,1,.12.75l-.24.47a.55.55,0,0,1-.78.19,4.44,4.44,0,0,0-2.31-.66c-1.24,0-1.65.71-1.65,1.24,0,1,.78,1.36,2.14,2,1.94.9,3.62,1.63,3.62,3.67,0,1.77-1.53,3.2-3.82,3.2A5.48,5.48,0,0,1,143.14,122.18Z" transform="translate(-1.09 -0.11)"/><path class="cls-1" d="M158.31,111.82a4.93,4.93,0,0,1,5.08,5.1c0,.19,0,.48,0,.68a.53.53,0,0,1-.51.48h-8.16a4,4,0,0,0,3.67,3.84,5.14,5.14,0,0,0,3-.93c.39-.26.56-.36.85.08l.29.41c.22.34.32.46-.09.78a6.93,6.93,0,0,1-4.11,1.28c-3.4,0-5.43-2.67-5.43-5.87S154.91,111.82,158.31,111.82Zm3.28,4.83a3.29,3.29,0,0,0-3.28-3.21,3.66,3.66,0,0,0-3.61,3.21Z" transform="translate(-1.09 -0.11)"/><path class="cls-1" d="M166.33,112.59a.55.55,0,0,1,.53-.53h.39a.39.39,0,0,1,.44.34l.24.85a5.65,5.65,0,0,1,3.76-1.43c3.25,0,4.06,2.11,4.06,5v5.92a.57.57,0,0,1-.54.54h-.73a.54.54,0,0,1-.53-.54v-6.16c0-2.14-.73-3.14-2.38-3.14a4.92,4.92,0,0,0-3.45,1.56v7.74a.56.56,0,0,1-.53.54h-.73a.54.54,0,0,1-.53-.54Z" transform="translate(-1.09 -0.11)"/><path class="cls-1" d="M178.54,113.61a.53.53,0,0,1-.56-.53v-.49a.52.52,0,0,1,.56-.53H180V109a.57.57,0,0,1,.53-.53l.76,0a.5.5,0,0,1,.51.53v3.16h3.3a.53.53,0,0,1,.56.53v.49a.55.55,0,0,1-.56.53h-3.3v6.7c0,1.17.36,1.61,1,1.61a3.92,3.92,0,0,0,2.21-.73c.44-.27.58,0,.7.22l.22.51c.15.36.1.53-.19.73a5.92,5.92,0,0,1-3.16.89c-2.13,0-2.57-1.36-2.57-3.1v-6.83Z" transform="translate(-1.09 -0.11)"/><path class="cls-1" d="M188,107.86a1.33,1.33,0,1,1,2.65,0,1.33,1.33,0,0,1-2.65,0Zm.46,4.73a.56.56,0,0,1,.54-.53h.72a.58.58,0,0,1,.54.53v10.15a.57.57,0,0,1-.54.54H189a.54.54,0,0,1-.54-.54Z" transform="translate(-1.09 -0.11)"/><path class="cls-1" d="M198.81,111.82a4.93,4.93,0,0,1,5.07,5.1c0,.19,0,.48,0,.68a.53.53,0,0,1-.51.48h-8.16a4,4,0,0,0,3.66,3.84,5.15,5.15,0,0,0,3-.93c.39-.26.56-.36.85.08l.29.41c.22.34.32.46-.1.78a6.92,6.92,0,0,1-4.1,1.28c-3.4,0-5.44-2.67-5.44-5.87S195.41,111.82,198.81,111.82Zm3.28,4.83a3.29,3.29,0,0,0-3.28-3.21,3.68,3.68,0,0,0-3.62,3.21Z" transform="translate(-1.09 -0.11)"/><path class="cls-1" d="M206.82,112.59a.56.56,0,0,1,.54-.53h.39a.48.48,0,0,1,.48.39l.2.8a4.44,4.44,0,0,1,3.44-1.43c.85,0,2.24.12,2,.9l-.32.87a.42.42,0,0,1-.65.27,2.85,2.85,0,0,0-1.22-.32,3.53,3.53,0,0,0-3,1.43v7.77a.56.56,0,0,1-.53.54h-.73a.55.55,0,0,1-.54-.54Z" transform="translate(-1.09 -0.11)"/><path class="cls-1" d="M215.44,113.61a.53.53,0,0,1-.56-.53v-.49a.52.52,0,0,1,.56-.53h1.48V109a.57.57,0,0,1,.54-.53l.75,0a.5.5,0,0,1,.51.53v3.16H222a.53.53,0,0,1,.56.53v.49a.54.54,0,0,1-.56.53h-3.3v6.7c0,1.17.36,1.61,1,1.61a3.92,3.92,0,0,0,2.21-.73c.44-.27.59,0,.71.22l.22.51c.14.36.09.53-.2.73a5.87,5.87,0,0,1-3.15.89c-2.14,0-2.58-1.36-2.58-3.1v-6.83Z" transform="translate(-1.09 -0.11)"/><path class="cls-1" d="M230,112.69c-.17-.34,0-.63.41-.63h.85a.49.49,0,0,1,.51.32l3.47,8.25h.05l3.69-8.25a.48.48,0,0,1,.44-.32h.78c.43,0,.58.29.43.63l-4.83,10.56a.44.44,0,0,1-.46.29h-.14a.48.48,0,0,1-.47-.29Z" transform="translate(-1.09 -0.11)"/><path class="cls-1" d="M247.73,111.82a5.86,5.86,0,1,1-5.63,5.82A5.77,5.77,0,0,1,247.73,111.82Zm0,10.1a4,4,0,0,0,3.84-4.28,3.86,3.86,0,1,0-7.7,0A4.06,4.06,0,0,0,247.73,121.92Z" transform="translate(-1.09 -0.11)"/><path class="cls-1" d="M256.42,112.59a.56.56,0,0,1,.54-.53h.39a.38.38,0,0,1,.43.34l.25.85a5.65,5.65,0,0,1,3.76-1.43c3.25,0,4,2.11,4,5v5.92a.56.56,0,0,1-.53.54h-.73a.54.54,0,0,1-.53-.54v-6.16c0-2.14-.73-3.14-2.38-3.14a4.92,4.92,0,0,0-3.45,1.56v7.74a.56.56,0,0,1-.53.54H257a.55.55,0,0,1-.54-.54Z" transform="translate(-1.09 -0.11)"/><path class="cls-1" d="M280,111.82a7,7,0,0,1,3.11.7v-5.7a.56.56,0,0,1,.53-.54h.68a.58.58,0,0,1,.56.54v15.92a.57.57,0,0,1-.56.54h-.44c-.24,0-.38-.2-.48-.46l-.15-.73a5.41,5.41,0,0,1-3.54,1.45c-2.84,0-5-2.69-5-5.9S276.57,111.82,280,111.82Zm-.07,10.1a4.15,4.15,0,0,0,3.18-1.8v-6a7.29,7.29,0,0,0-2.87-.64c-2.4,0-3.74,2-3.74,4.23S277.84,121.92,279.88,121.92Z" transform="translate(-1.09 -0.11)"/><path class="cls-1" d="M293.35,111.82a4.93,4.93,0,0,1,5.08,5.1c0,.19,0,.48-.05.68a.53.53,0,0,1-.51.48h-8.16a4,4,0,0,0,3.67,3.84,5.14,5.14,0,0,0,3-.93c.39-.26.56-.36.85.08l.29.41c.22.34.32.46-.1.78a6.92,6.92,0,0,1-4.1,1.28c-3.4,0-5.44-2.67-5.44-5.87S290,111.82,293.35,111.82Zm3.28,4.83a3.29,3.29,0,0,0-3.28-3.21,3.68,3.68,0,0,0-3.62,3.21Z" transform="translate(-1.09 -0.11)"/><path class="cls-1" d="M301.36,112.59a.56.56,0,0,1,.54-.53h.39a.48.48,0,0,1,.48.39l.2.8a4.44,4.44,0,0,1,3.44-1.43c.85,0,2.24.12,2,.9l-.32.87a.42.42,0,0,1-.65.27,2.85,2.85,0,0,0-1.22-.32,3.53,3.53,0,0,0-3,1.43v7.77a.56.56,0,0,1-.53.54h-.73a.55.55,0,0,1-.54-.54Z" transform="translate(-1.09 -0.11)"/><path class="cls-1" d="M316.46,106.48a.46.46,0,0,1,.47-.44h.36a.43.43,0,0,1,.39.19l10.8,13.45h0V106.74a.47.47,0,0,1,.46-.46h.85a.48.48,0,0,1,.46.46v16.34a.46.46,0,0,1-.46.44h-.19a.42.42,0,0,1-.39-.2l-11-13.71h0v13.21a.47.47,0,0,1-.46.46h-.85a.48.48,0,0,1-.47-.46Z" transform="translate(-1.09 -0.11)"/><path class="cls-1" d="M334.79,106.74a.48.48,0,0,1,.47-.46h.92a.46.46,0,0,1,.46.46V117c0,2.77,1.72,4.84,4.56,4.84a4.45,4.45,0,0,0,4.62-4.79V106.74a.46.46,0,0,1,.46-.46h.92a.48.48,0,0,1,.46.46v10.37a6.44,6.44,0,0,1-12.87,0Zm2.6-3.83a1.25,1.25,0,1,1,1.24,1.24A1.25,1.25,0,0,1,337.39,102.91Zm5.13,0a1.24,1.24,0,0,1,1.23-1.27,1.26,1.26,0,1,1,0,2.51A1.24,1.24,0,0,1,342.52,102.91Z" transform="translate(-1.09 -0.11)"/><path class="cls-1" d="M352.15,106.74a.47.47,0,0,1,.47-.46h6.28a5.22,5.22,0,0,1,5.3,5.17,5.42,5.42,0,0,1-3.6,5l3.33,6.16a.46.46,0,0,1-.41.71h-1.17a.53.53,0,0,1-.53-.37l-3.16-6.29H354v6.2a.47.47,0,0,1-.46.46h-.94a.47.47,0,0,1-.47-.46Zm6.63,8.28a3.49,3.49,0,1,0,0-7h-4.71v7Z" transform="translate(-1.09 -0.11)"/><path class="cls-1" d="M367.94,106.48a.45.45,0,0,1,.46-.44h.36a.43.43,0,0,1,.39.19L380,119.68H380V106.74a.47.47,0,0,1,.46-.46h.85a.47.47,0,0,1,.46.46v16.34a.45.45,0,0,1-.46.44h-.19a.42.42,0,0,1-.39-.2l-11-13.71h0v13.21a.47.47,0,0,1-.46.46h-.85a.47.47,0,0,1-.46-.46Z" transform="translate(-1.09 -0.11)"/><path class="cls-1" d="M394.84,114.66a4.26,4.26,0,0,1,2.88,3.93c0,2.72-2.11,4.69-5.12,4.69h-5.7a.46.46,0,0,1-.46-.46V106.74a.46.46,0,0,1,.46-.46h5.36c3,0,4.93,1.92,4.93,4.47a4.48,4.48,0,0,1-2.35,3.86Zm-2.36,7a3,3,0,0,0,3.21-3.08,3.1,3.1,0,0,0-3.31-3h-4.17v6.07Zm-.53-7.74a3,3,0,0,0,3.18-3c0-1.75-1.19-2.91-3.18-2.91h-3.69v6Z" transform="translate(-1.09 -0.11)"/><path class="cls-1" d="M401.56,106.74a.47.47,0,0,1,.46-.46h9.57a.46.46,0,0,1,.46.46v.71a.46.46,0,0,1-.46.46h-8.16v5.92h7a.48.48,0,0,1,.46.46V115a.47.47,0,0,1-.46.46h-7v6.19h8.16a.46.46,0,0,1,.46.46v.71a.46.46,0,0,1-.46.46H402a.47.47,0,0,1-.46-.46Z" transform="translate(-1.09 -0.11)"/><path class="cls-1" d="M415.55,106.74a.46.46,0,0,1,.46-.46h6.29a5.22,5.22,0,0,1,5.29,5.17,5.42,5.42,0,0,1-3.6,5l3.33,6.16a.46.46,0,0,1-.41.71h-1.17a.53.53,0,0,1-.53-.37l-3.16-6.29h-4.63v6.2a.48.48,0,0,1-.47.46H416a.46.46,0,0,1-.46-.46Zm6.62,8.28a3.49,3.49,0,1,0,0-7h-4.71v7Z" transform="translate(-1.09 -0.11)"/><path class="cls-1" d="M439,106a8.53,8.53,0,0,1,5.88,2.26.47.47,0,0,1,0,.68c-.22.22-.48.46-.68.68s-.36.21-.63,0a7.37,7.37,0,0,0-4.61-1.89,7,7,0,0,0,0,14,9.14,9.14,0,0,0,4.37-1v-3.4h-2.79a.43.43,0,0,1-.46-.43V116a.44.44,0,0,1,.46-.46h4.2a.45.45,0,0,1,.43.46v5.56a.6.6,0,0,1-.19.39,12,12,0,0,1-6,1.6A8.74,8.74,0,1,1,439,106Z" transform="translate(-1.09 -0.11)"/><path class="cls-1" d="M449.15,106.74a.46.46,0,0,1,.46-.46h9.56a.47.47,0,0,1,.47.46v.71a.47.47,0,0,1-.47.46H451v5.92h7a.48.48,0,0,1,.46.46V115a.47.47,0,0,1-.46.46h-7v6.19h8.15a.47.47,0,0,1,.47.46v.71a.47.47,0,0,1-.47.46h-9.56a.46.46,0,0,1-.46-.46Z" transform="translate(-1.09 -0.11)"/><path class="cls-1" d="M463.13,106.74a.47.47,0,0,1,.46-.46h6.29a5.21,5.21,0,0,1,5.29,5.17,5.42,5.42,0,0,1-3.59,5l3.33,6.16a.46.46,0,0,1-.42.71h-1.16a.53.53,0,0,1-.53-.37l-3.16-6.29H465v6.2a.48.48,0,0,1-.46.46h-1a.47.47,0,0,1-.46-.46Zm6.63,8.28a3.49,3.49,0,1,0,0-7h-4.71v7Z" transform="translate(-1.09 -0.11)"/><path class="cls-1" d="M482.58,106.91a.43.43,0,0,1,.41-.63h1a.46.46,0,0,1,.42.27l6,13.59h.1l6-13.59a.49.49,0,0,1,.42-.27h1a.43.43,0,0,1,.41.63L491,123.25a.46.46,0,0,1-.41.27h-.25a.48.48,0,0,1-.41-.27Z" transform="translate(-1.09 -0.11)"/><path class="cls-1" d="M503.48,111.82a4.93,4.93,0,0,1,5.08,5.1c0,.19,0,.48-.05.68a.53.53,0,0,1-.51.48h-8.16a4,4,0,0,0,3.67,3.84,5.14,5.14,0,0,0,3-.93c.39-.26.56-.36.85.08l.29.41c.22.34.32.46-.09.78a6.93,6.93,0,0,1-4.11,1.28c-3.4,0-5.44-2.67-5.44-5.87S500.08,111.82,503.48,111.82Zm3.28,4.83a3.29,3.29,0,0,0-3.28-3.21,3.66,3.66,0,0,0-3.61,3.21Z" transform="translate(-1.09 -0.11)"/><path class="cls-1" d="M511.5,112.59a.55.55,0,0,1,.53-.53h.39a.47.47,0,0,1,.48.39l.2.8a4.45,4.45,0,0,1,3.45-1.43c.85,0,2.23.12,2,.9l-.31.87a.43.43,0,0,1-.66.27,2.85,2.85,0,0,0-1.21-.32,3.56,3.56,0,0,0-3,1.43v7.77a.56.56,0,0,1-.53.54H512a.54.54,0,0,1-.53-.54Z" transform="translate(-1.09 -0.11)"/><path class="cls-1" d="M520.28,122.18a.39.39,0,0,1-.07-.48l.34-.63c.15-.27.34-.37.66-.15a4.59,4.59,0,0,0,2.79,1c1.14,0,1.92-.54,1.92-1.41,0-1.07-.88-1.51-2.5-2.31s-3.18-1.53-3.18-3.45c0-1.16.87-2.93,3.47-2.93a5.87,5.87,0,0,1,3.2.87.53.53,0,0,1,.12.75l-.24.47a.55.55,0,0,1-.78.19,4.4,4.4,0,0,0-2.3-.66c-1.24,0-1.65.71-1.65,1.24,0,1,.77,1.36,2.13,2,1.95.9,3.62,1.63,3.62,3.67,0,1.77-1.53,3.2-3.81,3.2A5.51,5.51,0,0,1,520.28,122.18Z" transform="translate(-1.09 -0.11)"/><path class="cls-1" d="M530.26,107.86a1.33,1.33,0,1,1,1.31,1.31A1.32,1.32,0,0,1,530.26,107.86Zm.46,4.73a.56.56,0,0,1,.54-.53H532a.58.58,0,0,1,.53.53v10.15a.56.56,0,0,1-.53.54h-.73a.55.55,0,0,1-.54-.54Z" transform="translate(-1.09 -0.11)"/><path class="cls-1" d="M541.26,111.82a5.21,5.21,0,0,1,4.08,1.84.53.53,0,0,1-.1.8l-.39.37c-.36.31-.58.07-.8-.17a3.46,3.46,0,0,0-2.81-1.22,4.27,4.27,0,0,0-.08,8.48,3.64,3.64,0,0,0,3.06-1.61c.32-.36.63-.26.95,0l.15.15c.24.24.34.48.14.78a5.15,5.15,0,0,1-4.22,2.25,5.55,5.55,0,0,1-5.66-5.85A5.67,5.67,0,0,1,541.26,111.82Z" transform="translate(-1.09 -0.11)"/><path class="cls-1" d="M548.45,106.82a.56.56,0,0,1,.53-.54h.73a.57.57,0,0,1,.53.54v6.43a5.13,5.13,0,0,1,3.57-1.43c2.79,0,4.06,1.72,4.06,5v5.92a.57.57,0,0,1-.54.54h-.75a.54.54,0,0,1-.53-.54v-5.92c0-2.14-.63-3.38-2.36-3.38a4.81,4.81,0,0,0-3.45,1.61v7.69a.56.56,0,0,1-.53.54H549a.54.54,0,0,1-.53-.54Z" transform="translate(-1.09 -0.11)"/><path class="cls-1" d="M566.27,111.82a4.93,4.93,0,0,1,5.07,5.1,5.31,5.31,0,0,1-.05.68.51.51,0,0,1-.51.48h-8.15a3.94,3.94,0,0,0,3.66,3.84,5.17,5.17,0,0,0,3-.93c.38-.26.55-.36.85.08l.29.41c.22.34.31.46-.1.78a6.92,6.92,0,0,1-4.1,1.28c-3.4,0-5.44-2.67-5.44-5.87S562.87,111.82,566.27,111.82Zm3.27,4.83a3.27,3.27,0,0,0-3.27-3.21,3.67,3.67,0,0,0-3.62,3.21Z" transform="translate(-1.09 -0.11)"/><path class="cls-1" d="M574.28,112.59a.55.55,0,0,1,.53-.53h.39a.49.49,0,0,1,.49.39l.19.8a4.48,4.48,0,0,1,3.45-1.43c.85,0,2.23.12,2,.9l-.32.87a.42.42,0,0,1-.65.27,2.85,2.85,0,0,0-1.22-.32,3.53,3.53,0,0,0-3,1.43v7.77a.57.57,0,0,1-.54.54h-.73a.54.54,0,0,1-.53-.54Z" transform="translate(-1.09 -0.11)"/><path class="cls-1" d="M583.53,112.59a.54.54,0,0,1,.53-.53h.73a.56.56,0,0,1,.54.53v6.07c0,2.24.72,3.26,2.35,3.26a4.15,4.15,0,0,0,3.18-1.63v-7.7a.54.54,0,0,1,.51-.53h.75a.55.55,0,0,1,.51.53v10.15a.54.54,0,0,1-.51.54h-.38c-.32,0-.44-.2-.51-.49l-.22-.7a4.57,4.57,0,0,1-3.47,1.45c-3.23,0-4-1.94-4-4.9Z" transform="translate(-1.09 -0.11)"/><path class="cls-1" d="M596.42,112.59a.56.56,0,0,1,.54-.53h.38a.39.39,0,0,1,.44.34l.24.85a5.7,5.7,0,0,1,3.77-1.43c3.25,0,4.05,2.11,4.05,5v5.92a.56.56,0,0,1-.53.54h-.73a.55.55,0,0,1-.54-.54v-6.16c0-2.14-.72-3.14-2.37-3.14a4.89,4.89,0,0,0-3.45,1.56v7.74a.57.57,0,0,1-.54.54H597a.54.54,0,0,1-.54-.54Z" transform="translate(-1.09 -0.11)"/><path class="cls-1" d="M619,123.35c0,3.84-2.35,5.24-4.9,5.24a6.34,6.34,0,0,1-3.91-1.45.52.52,0,0,1-.12-.66l.48-.7c.17-.27.46-.27.73,0a4.47,4.47,0,0,0,2.82,1.19c1.77,0,3.13-1,3.13-3.59v-.8a5.43,5.43,0,0,1-3.11,1c-3.08,0-5.32-2.59-5.32-5.87s2.19-5.85,5.25-5.85A5.56,5.56,0,0,1,617.4,113l.17-.51c.12-.22.24-.39.53-.39h.34a.58.58,0,0,1,.56.53Zm-4.64-1.46a5.44,5.44,0,0,0,2.84-.92v-6.14a4.17,4.17,0,0,0-3-1.36c-2.23,0-3.62,2-3.62,4.17C610.62,120.07,612.23,121.89,614.36,121.89Z" transform="translate(-1.09 -0.11)"/><path class="cls-2" d="M63.08,119.05h2.28c4.19,0,7.41-2.31,7.88-6.55.36-3.19-1.11-6.63-4.34-7.69-3.14,1.52-3.55,4.87-2.12,7.76A2.13,2.13,0,0,1,63,114.46a10.85,10.85,0,0,1-1.19-6.2,9.51,9.51,0,0,1-5.18-9,2.13,2.13,0,1,1,4.25,0,5.44,5.44,0,0,0,2.43,4.88,9.47,9.47,0,0,1,3.56-3.16A9.31,9.31,0,0,0,65,95.19a8.06,8.06,0,0,0-5.27-3.13c-1.47,2.61-4.38,4.06-7.22,4.66a9.56,9.56,0,0,1-2.75,9.19,2.13,2.13,0,1,1-3-3,5.15,5.15,0,0,0,1.39-5.81,17.49,17.49,0,0,1-2.76-.36,2.13,2.13,0,0,1,.94-4.15c2.82.63,8.73.21,9.91-3.06-.14-2.83-3.67-5-6.19-5.57v4.15a2.14,2.14,0,0,1-4.27,0V64.9a2.14,2.14,0,0,1,4.27,0V79.64c4.34.59,9.12,3.77,10.21,8.2a12.22,12.22,0,0,1,8.13,4.76,13.62,13.62,0,0,1,2.78,8.49c4.62,2,6.91,7,6.37,11.88-.72,6.39-5.72,10.35-12.12,10.35H13.29c-6.41,0-11.41-4-12.12-10.35-.54-4.84,1.74-9.89,6.37-11.88a13.68,13.68,0,0,1,2.77-8.49,12.24,12.24,0,0,1,8.13-4.76c1.1-4.43,5.88-7.61,10.22-8.2V64.9a2.13,2.13,0,1,1,4.26,0V88.09a2.13,2.13,0,0,1-4.26,0V83.94c-2.39.5-5.49,2.41-6.1,4.92a9,9,0,0,1,2.39,4A13.52,13.52,0,0,1,33.65,95a2.13,2.13,0,1,1-2.33,3.57,9.18,9.18,0,0,0-6.07-1.47A10.19,10.19,0,0,1,20,104.44a2.12,2.12,0,1,1-2.12-3.68,5.8,5.8,0,0,0,3.25-5.27A5.38,5.38,0,0,0,19.69,92a8,8,0,0,0-6,3.2,9.35,9.35,0,0,0-1.9,5.64,6.2,6.2,0,0,0,2.78,5.52,8.28,8.28,0,0,0,5.62,1.14,2.13,2.13,0,1,1,.56,4.22,13.36,13.36,0,0,1-2.52.1A13.27,13.27,0,0,1,17,115.57a2.12,2.12,0,1,1-3.81-1.87,9,9,0,0,0,.88-2.83,10.48,10.48,0,0,1-5.64-5.45,7.33,7.33,0,0,0-3,7.08c.48,4.24,3.69,6.55,7.89,6.55H26a9,9,0,0,1-.64-6.92,2.13,2.13,0,1,1,4.07,1.25,4.76,4.76,0,0,0,.44,3.87c1.49,2.26,5,1.8,7.32,1.8V108.14a8.53,8.53,0,0,1-3.84.9,10.21,10.21,0,0,1-7.09-3,2.14,2.14,0,0,1,3-3,5.81,5.81,0,0,0,4.07,1.7c2.64,0,3.84-1.78,3.84-4.33v-27a2.14,2.14,0,0,1,4.27,0V110.8A12.31,12.31,0,0,1,48.07,109a2.14,2.14,0,1,1,0,4.27c-3.75,0-6.61,1.82-6.61,5.82H54a9.45,9.45,0,0,1-.34-10,2.12,2.12,0,1,1,3.68,2.12,5.25,5.25,0,0,0-.07,5.07C58.41,118.34,60.82,119.05,63.08,119.05Z" transform="translate(-1.09 -0.11)"/><path class="cls-3" d="M24.4,33.82c0-8.55,2.67-12.45,6.83-19.65L39.34.11l8,14.06c4.09,7.22,6.93,11.14,6.93,19.65v7.65a10.68,10.68,0,0,1,8.53,10.45V67a2.14,2.14,0,0,1-3.64,1.51l-7.9-7.91H41.46V67a2.14,2.14,0,0,1-4.27,0v-6.4H27.41L19.5,68.54A2.14,2.14,0,0,1,15.86,67V51.92A10.69,10.69,0,0,1,24.4,41.47V33.82ZM36.75,13.09h5.06l-2.5-4.42-2.56,4.42Zm-8.1,20.73V56.37h8.54v-13a2.14,2.14,0,0,1,4.27,0v13H50V33.82c0-6.1-1.2-8.41-5.76-16.46H34.29c-3.49,6.06-5.64,9.29-5.64,16.46Zm25.6,12.07V57.62l4.27,4.26v-10a6.38,6.38,0,0,0-4.27-6ZM24.4,57.61V45.88a6.41,6.41,0,0,0-4.27,6v10l4.27-4.27Zm14.92-34a6.4,6.4,0,1,0,6.4,6.4,6.41,6.41,0,0,0-6.4-6.4Zm0,4.27A2.13,2.13,0,1,0,41.46,30,2.13,2.13,0,0,0,39.32,27.85Z" transform="translate(-1.09 -0.11)"/></svg>